# xmcd
#
# Track frame offsets:
#	150
#	12382
#	34333
#	58877
#	72385
#	86756
#	98515
#	117640
#	131167
#	142980
#	152604
#	168344
#	183658
#	197144
#
# Disc length: 2855 seconds
#
# Revision: 0
# Processed by: cddbd v1.5.2PL0 Copyright (c) Steve Scherf et al.
# Submitted via: EZCDAudioConverter 2.1.7.1
#
DISCID=cc0b250e
DTITLE=V/A - True Blood V1
DYEAR=2009
DGENRE=
TTITLE0=Jace Everett - Bad Things
TTITLE1=CC Adcock and The Lafayette Marquis - Bleed 2 Feed
TTITLE2=Lucinda Williams - Lake Charles
TTITLE3=Lee Dorsey - Give It Up
TTITLE4=Th' Legendary Shack*Shakers - Swampblood
TTITLE5=Cobra Verde - Play With Fire
TTITLE6=Watson Twins - Just Like Heaven
TTITLE7=Flying Burrito Brothers - Christine's Tune (A.K.A. Devil In Disguise)
TTITLE8=Ryan Adams - Two
TTITLE9=Slim Harpo - Strange Love
TTITLE10=Allen Toussaint - From A Whisper To A Scream
TTITLE11=Dr. John - I Don't Wanna Know
TTITLE12=John Doe featuring Kathleen Edwards - The Golden State
TTITLE13=Little Big Town - Bones
EXTD=
EXTT0=
EXTT1=
EXTT2=
EXTT3=
EXTT4=
EXTT5=
EXTT6=
EXTT7=
EXTT8=
EXTT9=
EXTT10=
EXTT11=
EXTT12=
EXTT13=
PLAYORDER=
